<?xml version="1.0" standalone="no"?>
<!DOCTYPE svg PUBLIC "-//W3C//DTD SVG 20010904//EN"
 "http://www.w3.org/TR/2001/REC-SVG-20010904/DTD/svg10.dtd">
<svg version="1.0" xmlns="http://www.w3.org/2000/svg"
 width="512.000000pt" height="512.000000pt" viewBox="0 0 512.000000 512.000000"
 preserveAspectRatio="xMidYMid meet">

<g transform="translate(0.000000,512.000000) scale(0.100000,-0.100000)"
fill="#efd81d" stroke="none">
<path d="M29 5091 l-29 -29 0 -2502 0 -2502 29 -29 29 -29 2502 0 2502 0 29
29 29 29 0 2502 0 2502 -29 29 -29 29 -2502 0 -2502 0 -29 -29z m2849 -1797
l22 -25 0 -1075 c0 -1177 1 -1151 -59 -1295 -84 -201 -263 -365 -476 -436 -73
-24 -94 -27 -230 -27 -136 0 -157 2 -230 27 -130 44 -220 99 -315 196 -134
135 -206 293 -217 472 -5 89 -4 98 15 117 69 69 152 15 152 -99 0 -182 147
-399 331 -487 105 -51 184 -66 297 -59 117 7 207 37 300 100 87 60 159 142
203 235 60 124 59 98 59 1257 0 830 3 1065 13 1085 27 54 93 61 135 14z m1178
21 c344 -60 608 -350 631 -693 6 -87 5 -94 -17 -117 -17 -18 -34 -25 -62 -25
-46 0 -75 25 -82 72 -22 159 -29 189 -65 264 -70 146 -194 256 -353 311 -105
37 -261 37 -366 0 -104 -36 -174 -81 -249 -161 -72 -76 -132 -188 -152 -284
-39 -187 19 -387 152 -528 120 -128 235 -177 449 -193 81 -6 160 -18 203 -32
329 -101 545 -392 545 -734 0 -213 -73 -388 -225 -540 -152 -152 -327 -225
-540 -225 -213 0 -388 73 -540 225 -113 113 -179 232 -210 383 -18 82 -19 181
-2 203 33 43 84 49 122 16 23 -19 28 -34 36 -101 18 -165 72 -281 178 -386
111 -110 259 -170 416 -170 330 0 595 265 595 595 0 271 -183 508 -445 575
-43 11 -104 20 -135 20 -87 0 -225 27 -304 60 -446 186 -614 727 -350 1130
113 173 301 298 501 334 104 19 163 19 269 1z"/>
</g>
</svg>
